<svg width="180" height="161" viewBox="0 0 180 161" fill="none" xmlns="http://www.w3.org/2000/svg">
<path d="M180 80.1671C180 68.243 165.067 56.9425 142.173 49.9348C147.456 26.6001 145.108 8.03506 134.762 2.09132C132.377 0.697104 129.588 0.0366892 126.543 0.0366892V8.21851C128.231 8.21851 129.588 8.54872 130.726 9.17244C135.715 12.0342 137.88 22.9311 136.192 36.9466C135.789 40.3954 135.128 44.0277 134.321 47.7334C127.13 45.9723 119.278 44.6148 111.023 43.7342C106.07 36.9466 100.934 30.7827 95.7603 25.3893C107.721 14.2723 118.948 8.18182 126.58 8.18182V0C116.49 0 103.282 7.1912 89.9266 19.6657C76.5715 7.26458 63.3632 0.14676 53.2735 0.14676V8.32858C60.8683 8.32858 72.1321 14.3824 84.0929 25.426C78.9564 30.8194 73.8198 36.9466 68.9401 43.7342C60.6482 44.6148 52.7966 45.9723 45.6054 47.7701C44.7615 44.1011 44.1378 40.5422 43.6975 37.13C41.9731 23.1146 44.1011 12.2177 49.0542 9.3192C50.1549 8.65879 51.5858 8.36527 53.2735 8.36527V0.183449C50.1916 0.183449 47.4032 0.843864 44.9817 2.23808C34.6718 8.18182 32.3604 26.7101 37.6804 49.9715C14.8594 57.0159 -1.11968e-06 68.2797 -1.11968e-06 80.1671C-1.11968e-06 92.0913 14.9327 103.392 37.8271 110.4C32.5438 133.734 34.892 152.299 45.2385 158.243C47.6233 159.637 50.4117 160.298 53.4937 160.298C63.5834 160.298 76.7917 153.106 90.1468 140.632C103.502 153.033 116.71 160.151 126.8 160.151C129.882 160.151 132.67 159.49 135.092 158.096C145.402 152.152 147.713 133.624 142.393 110.363C165.141 103.355 180 92.0546 180 80.1671ZM132.23 55.6951C130.872 60.428 129.185 65.3078 127.277 70.1875C125.773 67.2523 124.195 64.3172 122.47 61.382C120.783 58.4468 118.985 55.585 117.187 52.7966C122.397 53.5671 127.424 54.521 132.23 55.6951ZM115.426 94.7697C112.564 99.7228 109.629 104.419 106.584 108.785C101.117 109.262 95.5768 109.519 90 109.519C84.4598 109.519 78.9197 109.262 73.4896 108.822C70.4444 104.456 67.4725 99.7962 64.6107 94.8797C61.8223 90.0734 59.2907 85.1936 56.9792 80.2772C59.254 75.3608 61.8223 70.4444 64.574 65.638C67.4358 60.6849 70.371 55.9886 73.4162 51.6225C78.883 51.1455 84.4232 50.8887 90 50.8887C95.5402 50.8887 101.08 51.1455 106.51 51.5858C109.556 55.9519 112.528 60.6115 115.389 65.5279C118.178 70.3343 120.709 75.214 123.021 80.1305C120.709 85.0469 118.178 89.9633 115.426 94.7697ZM127.277 90C129.258 94.9164 130.946 99.8329 132.34 104.603C127.534 105.777 122.47 106.767 117.224 107.538C119.022 104.713 120.819 101.814 122.507 98.8422C124.195 95.9071 125.773 92.9352 127.277 90ZM90.0734 129.148C86.6612 125.626 83.2491 121.7 79.8736 117.407C83.1757 117.554 86.5512 117.664 89.9633 117.664C93.4121 117.664 96.8243 117.591 100.163 117.407C96.861 121.7 93.4488 125.626 90.0734 129.148ZM62.7762 107.538C57.5662 106.767 52.5397 105.813 47.7334 104.639C49.0909 99.9062 50.7786 95.0265 52.6865 90.1468C54.1908 93.0819 55.7684 96.0171 57.4929 98.9523C59.2173 101.887 60.9784 104.749 62.7762 107.538ZM89.8899 31.1863C93.3021 34.7085 96.7142 38.6343 100.09 42.927C96.7876 42.7803 93.4121 42.6702 90 42.6702C86.5512 42.6702 83.139 42.7436 79.8002 42.927C83.1023 38.6343 86.5145 34.7085 89.8899 31.1863ZM62.7395 52.7966C60.9417 55.6217 59.1439 58.5202 57.4562 61.4921C55.7684 64.4272 54.1908 67.3624 52.6865 70.2976C50.7053 65.3812 49.0175 60.4647 47.6233 55.6951C52.4297 54.5577 57.4929 53.5671 62.7395 52.7966ZM29.5353 98.7322C16.5471 93.192 8.14513 85.9274 8.14513 80.1671C8.14513 74.4068 16.5471 67.1056 29.5353 61.6021C32.6906 60.2446 36.1394 59.0338 39.6983 57.8965C41.7896 65.0876 44.5414 72.5724 47.9535 80.2405C44.5781 87.872 41.863 95.32 39.8084 102.475C36.1761 101.337 32.7273 100.09 29.5353 98.7322ZM49.2744 151.162C44.2845 148.3 42.1199 137.403 43.8076 123.388C44.2112 119.939 44.8716 116.307 45.6788 112.601C52.87 114.362 60.7216 115.72 68.9768 116.6C73.9299 123.388 79.0664 129.552 84.2397 134.945C72.2788 146.062 61.0518 152.152 53.4203 152.152C51.7693 152.116 50.3751 151.786 49.2744 151.162ZM136.302 123.204C138.027 137.22 135.899 148.117 130.946 151.015C129.845 151.676 128.414 151.969 126.726 151.969C119.132 151.969 107.868 145.915 95.907 134.872C101.044 129.478 106.18 123.351 111.06 116.563C119.352 115.683 127.203 114.325 134.395 112.528C135.238 116.233 135.899 119.792 136.302 123.204ZM150.428 98.7322C147.273 100.09 143.824 101.3 140.265 102.438C138.174 95.2466 135.422 87.7619 132.01 80.0938C135.385 72.4623 138.1 65.0143 140.155 57.8598C143.787 58.9971 147.236 60.2446 150.465 61.6021C163.453 67.1423 171.855 74.4068 171.855 80.1671C171.818 85.9274 163.416 93.2287 150.428 98.7322Z" fill="#61DAFB"/>
<path d="M89.9633 96.9344C99.2236 96.9344 106.731 89.4274 106.731 80.1671C106.731 70.9069 99.2236 63.3999 89.9633 63.3999C80.703 63.3999 73.1961 70.9069 73.1961 80.1671C73.1961 89.4274 80.703 96.9344 89.9633 96.9344Z" fill="#61DAFB"/>
</svg>
