<svg width="240" height="234" viewBox="0 0 240 234" fill="none" xmlns="http://www.w3.org/2000/svg">
<path d="M0 0H220V214H0V0Z" transform="translate(10 10)" fill="#2D001E"/>
<path d="M0 0V234H240V0H0ZM10 10H230V224H10V10Z" fill="#FF33C1"/>
<path d="M129.094 42.8C127.594 42.1 125.694 41.8 123.294 41.8C110.694 41.8 102.294 51.5 102.294 67.6C102.294 86 110.894 93.4 122.094 93.4C124.494 93.4 127.094 93.1 128.994 92.3V42.8H129.094ZM84.2936 68.4C84.2936 45.1 99.2936 26.9 123.894 26.9C125.994 26.9 127.094 26.9 129.094 27.1V1.1C129.094 0.499998 129.594 0.0999985 130.094 0.0999985H146.194C146.994 0.0999985 147.194 0.400002 147.194 0.900002V92.3C147.194 95 147.194 98.4 147.694 102.1C147.694 102.8 147.694 102.9 147.094 103.2C138.694 107.2 129.894 109 121.494 109C99.7936 109 84.2936 95.6 84.2936 68.4V68.4ZM50.1936 52.2L78.1936 106.5C78.6936 107.3 78.3936 108.1 77.5936 108.1H60.1936C59.0936 108.1 58.5936 107.8 58.0936 106.8C51.6936 93.6 45.1936 79.9 38.4936 65.7H38.2936C32.2936 79.1 25.6936 93.7 19.2936 106.9C18.7936 107.7 18.2936 108 17.4936 108H0.893617C-0.106383 108 -0.206381 107.2 0.293619 106.6L27.6936 53.9L1.19362 1.5C0.59362 0.7 1.19362 0 1.89362 0H19.0936C20.0936 0 20.5936 0.199998 20.8936 1.1C27.1936 14.4 33.5936 27.5 39.5936 40.9H39.7936C45.5936 27.7 51.9936 14.4 58.0936 1.3C58.5936 0.499999 58.8936 0 59.8936 0H75.9936C76.7936 0 77.0936 0.6 76.5936 1.5L50.1936 52.2V52.2Z" transform="translate(45.2065 55.5)" fill="#FF33C1"/>
</svg>
