<svg width="150" height="212" viewBox="0 0 150 212" fill="none" xmlns="http://www.w3.org/2000/svg">
<path fill-rule="evenodd" clip-rule="evenodd" d="M13.6512 153.111L0 0H150L136.334 153.087L74.9084 170.116L13.6512 153.111Z" transform="translate(0 41.6094)" fill="#E55638"/>
<path fill-rule="evenodd" clip-rule="evenodd" d="M0 144.581L49.6349 130.821L61.3143 0H0V144.581Z" transform="translate(75 54.125)" fill="#F26B3A"/>
<path fill-rule="evenodd" clip-rule="evenodd" d="M47.0881 38.0086H22.2395L20.524 18.7792H47.0881V0H47.023H0L0.450127 5.03904L5.06559 56.7864H47.0881V38.0086Z" transform="translate(27.9062 72.9062)" fill="#EAEAEA"/>
<path fill-rule="evenodd" clip-rule="evenodd" d="M41.1833 20.6023L41.101 20.6249L20.188 14.9764L18.8496 0H8.68786H0L2.63039 29.4853L41.097 40.1636L41.1833 40.1397V20.6023Z" transform="translate(33.8125 139.078)" fill="#EAEAEA"/>
<path fill-rule="evenodd" clip-rule="evenodd" d="M0 0H9.54297V9.42745H18.2733V0H27.8163V28.5506H18.2733V18.9903H9.5443V28.5506H0.00132781V0H0Z" transform="translate(13.9531)" fill="#282828"/>
<path fill-rule="evenodd" clip-rule="evenodd" d="M8.40105 9.46728H0V0H26.3504V9.46728H17.9453V28.5506H8.40238V9.46728H8.40105Z" transform="translate(45.9219)" fill="#282828"/>
<path fill-rule="evenodd" clip-rule="evenodd" d="M0 0H9.95061L16.0718 10.0316L22.1864 0H32.141V28.5506H22.6378V14.4001L16.0718 24.5512H15.9085L9.33849 14.4001V28.5506H0V0Z" transform="translate(76.4531)" fill="#282828"/>
<path fill-rule="evenodd" clip-rule="evenodd" d="M0 0H9.54562V19.1138H22.9658V28.5506H0V0Z" transform="translate(113.344)" fill="#282828"/>
<path fill-rule="evenodd" clip-rule="evenodd" d="M0 0V18.7779H23.1238L20.9435 43.1326L0 48.7851V68.3211L38.4959 57.6522L38.7787 54.48L43.1923 5.04302L43.6491 0H38.5888H0Z" transform="translate(74.9375 110.922)" fill="#FEFEFE"/>
<path fill-rule="evenodd" clip-rule="evenodd" d="M0 0V11.6635V18.7327V18.7792H45.2982H45.3593L45.7351 14.5581L46.5902 5.03904L47.039 0H0Z" transform="translate(74.9375 72.9062)" fill="#FEFEFE"/>
</svg>
