<svg width="150" height="212" viewBox="0 0 150 212" fill="none" xmlns="http://www.w3.org/2000/svg">
<path d="M150 0H75H0L14.0581 152.479L75 169.763L135.922 152.479L150 0Z" transform="translate(0 41.3906)" fill="#E6A63A"/>
<path d="M0 0V144.434L49.3528 130.446L61.37 0H0Z" transform="translate(75 53.7969)" fill="#F2C035"/>
<path d="M81.1828 0H5.27678L0 57.0888L0.109518 56.7304H64.5858L62.4851 80.8841L41.9156 86.818L21.0374 80.7945L19.783 66.1788H0.826364L3.53445 95.3903L41.9156 106.292L80.2967 95.3903L85.5834 38.0625H17.1645L18.0307 18.9566H65.5217L66.2286 29.8885H85.3544L81.1828 0Z" transform="translate(33.0781 72.5156)" fill="#FEFEFE"/>
<path d="M41.9156 0H5.27678L0 57.0888L0.109518 56.7304H41.9156V38.0625H19.8029L20.679 18.9566H41.9156V0ZM19.783 66.1788H0.826364L3.53445 95.3903L41.9156 106.262V86.818L21.0374 80.7945L19.783 66.1788Z" transform="translate(33.1094 72.5156)" fill="#EBECEC"/>
<path d="M13.3413 18.8869H0V28.4747H13.3413H20.4799H22.8992V0H13.3413V18.8869Z" transform="translate(47.063)" fill="#373435"/>
<path d="M23.2676 0H0C0 0 0 4.99801 0 9.96615C3.11629 13.0824 4.73915 14.5659 9.23935 19.0661C6.61091 19.0661 0 19.0761 0 19.0761V28.176H23.2676V19.0761L13.9785 9.96615H23.2676V0Z" transform="translate(79.6724 0.15625)" fill="#373435"/>
</svg>
