<svg width="249" height="243" viewBox="0 0 249 243" fill="none" xmlns="http://www.w3.org/2000/svg">
<path d="M-3.04564e-06 -6.09599e-06H228.292V222.226H-3.04564e-06V-6.09599e-06Z" transform="translate(10.3789 10.3872)" fill="url(#paint0_radial)"/>
<path d="M10.3792 10.3872H238.671V232.613H10.3792V10.3872ZM3.04564e-06 243H249V0H3.04564e-06V243ZM167.913 99.7269C159.729 99.7269 156.935 103.872 156.935 107.318C156.935 111.063 158.781 113.66 169.809 119.353C186.076 127.243 191.166 134.834 191.166 145.92C191.166 162.549 178.492 171.488 161.376 171.488C152.344 171.488 144.56 169.641 140.119 167.044C139.37 166.744 139.27 166.195 139.27 165.396V150.065C139.27 149.016 139.769 148.716 140.518 149.216C147.055 153.461 154.54 155.358 161.376 155.358C169.56 155.358 173.003 151.912 173.003 147.268C173.003 143.523 170.607 140.227 160.128 134.784C145.408 127.742 139.27 120.601 139.27 108.616C139.27 95.2324 149.749 84.0962 167.913 84.0962C176.845 84.0962 183.082 85.4445 186.476 86.9926C187.324 87.492 187.523 88.3409 187.523 89.09V103.322C187.523 104.171 187.024 104.671 185.977 104.371C181.386 101.475 174.649 99.7269 167.913 99.7269ZM78.692 112.062C81.0872 112.261 82.9335 112.261 87.0752 112.261C99.2008 112.261 110.628 108.017 110.628 91.4871C110.628 78.3033 102.444 71.6615 88.622 71.6615C84.4804 71.6615 80.5383 71.8613 78.6421 71.9611L78.692 112.062ZM60.1792 56.9297C60.1792 56.1806 61.6263 55.6813 62.4746 55.6813C69.1112 55.3816 78.9914 55.1819 89.2208 55.1819C117.963 55.1819 129.191 70.9624 129.191 91.0876C129.191 117.455 110.079 128.791 86.626 128.791C82.684 128.791 81.3367 128.591 78.5423 128.591V168.442C78.5423 169.291 78.2429 169.69 77.2948 169.69H61.4267C60.5784 169.69 60.1792 169.391 60.1792 168.442V56.9297Z" fill="#31C5F0"/>
<defs>
<radialGradient id="paint0_radial" cx="0.5" cy="0.5" r="0.5" gradientUnits="userSpaceOnUse" gradientTransform="translate(-98.2335 217.944) scale(346.952 -336.172)">
<stop stop-color="#34364E" stop-opacity="0.98"/>
<stop offset="1" stop-color="#0C0824"/>
</radialGradient>
</defs>
</svg>
