<svg width="164" height="246" viewBox="0 0 164 246" fill="none" xmlns="http://www.w3.org/2000/svg">
<path d="M0 41C0 18.3551 18.3551 0 41 0C63.6449 0 82 18.3551 82 41C82 63.6449 63.6449 82 41 82C18.3551 82 0 63.6449 0 41Z" transform="translate(82 82)" fill="#1ABCFE"/>
<path d="M0 41C0 18.3551 18.3551 0 41 0H82V41C82 63.6449 63.6449 82 41 82C18.3551 82 0 63.6449 0 41Z" transform="translate(0 164)" fill="#0ACF83"/>
<path d="M0 0V82H41C63.6449 82 82 63.6449 82 41C82 18.3551 63.6449 0 41 0H0Z" transform="translate(82)" fill="#FF7262"/>
<path d="M0 41C0 63.6449 18.3551 82 41 82H82V0H41C18.3551 0 0 18.3551 0 41Z" fill="#F24E1E"/>
<path d="M0 41C0 63.6449 18.3551 82 41 82H82V0H41C18.3551 0 0 18.3551 0 41Z" transform="translate(0 82)" fill="#A259FF"/>
</svg>
