<svg width="465" height="292" viewBox="0 0 465 292" fill="none" xmlns="http://www.w3.org/2000/svg">
<path d="M4.40517 6.3999e-06H12.661C15.0844 0.0206281 16.8403 0.720428 17.9288 2.09946C19.0172 3.47855 19.3766 5.36186 19.0069 7.74943C18.8632 8.84034 18.5448 9.91065 18.052 10.9604C17.5796 12.0101 16.9224 12.9569 16.0804 13.8008C15.0536 14.8711 13.9549 15.5503 12.7842 15.8385C11.6136 16.1267 10.4019 16.2707 9.14921 16.2707H5.45256L4.28195 22.1369H-1.95116e-06L4.40517 6.3999e-06V6.3999e-06ZM8.00941 3.51967L6.16108 12.7819C6.28429 12.8025 6.40751 12.8128 6.53075 12.8128H6.96202C8.93357 12.8334 10.5765 12.6379 11.8909 12.2262C13.2052 11.794 14.0883 10.2914 14.5402 7.71857C14.9098 5.55737 14.5401 4.31214 13.4312 3.98277C12.3427 3.65346 10.977 3.4991 9.33404 3.51967C9.08759 3.54023 8.85141 3.55055 8.62552 3.55055C8.42014 3.55056 8.2045 3.55056 7.9786 3.55055L8.00941 3.51967" transform="translate(0 79.0007) scale(8.3528 8.3119)" fill="black"/>
<path d="M4.43598 -8.5332e-06H8.68713L7.48572 5.89699H11.3056C13.4004 5.93817 14.9611 6.37041 15.988 7.19371C17.0354 8.01707 17.3435 9.58134 16.9122 11.8866L14.8482 22.1677H10.5354L12.507 12.3497C12.7123 11.3206 12.6507 10.5899 12.3222 10.1576C11.9936 9.7254 11.285 9.50927 10.1966 9.50927L6.77719 9.47841L4.25115 22.1677H9.9332e-07L4.43598 -8.5332e-06Z" transform="translate(162.461 30) scale(8.3528 8.3119)" fill="black"/>
<path d="M4.40517 6.3999e-06H12.661C15.0844 0.0206281 16.8403 0.720428 17.9287 2.09946C19.0172 3.47855 19.3766 5.36186 19.0069 7.74943C18.8632 8.84034 18.5448 9.91065 18.052 10.9604C17.5796 12.0101 16.9224 12.9569 16.0804 13.8008C15.0536 14.8711 13.9549 15.5503 12.7842 15.8385C11.6136 16.1267 10.4019 16.2707 9.14921 16.2707H5.45256L4.28196 22.1369H1.63188e-06L4.40517 6.3999e-06ZM8.00941 3.51967L6.16108 12.7819C6.2843 12.8025 6.40752 12.8128 6.53075 12.8128H6.96202C8.93357 12.8334 10.5765 12.6379 11.8909 12.2262C13.2052 11.794 14.0883 10.2914 14.5402 7.71857C14.9098 5.55737 14.5401 4.31214 13.4312 3.98277C12.3427 3.65346 10.977 3.4991 9.33404 3.51967C9.08758 3.54023 8.85141 3.55055 8.62552 3.55055C8.42014 3.55056 8.2045 3.55056 7.9786 3.55055L8.00941 3.51967" transform="translate(305.065 79.0007) scale(8.3528 8.3119)" fill="black"/>
</svg>
