<svg width="80" height="80" viewBox="0 0 80 80" fill="none" xmlns="http://www.w3.org/2000/svg">
<g clip-path="url(#clip0)">
<path d="M70.0001 1H9.99998C4.47716 1 0 5.45885 0 10.9591V70.7137C0 76.2141 4.47716 80.6731 9.99998 80.6731H70.0001C75.5229 80.6731 80 76.2141 80 70.7137V10.9591C80 5.45885 75.5229 1 70.0001 1Z" fill="url(#paint0_linear)"/>
<path d="M64.8003 11.3574H50.0002C47.3492 11.3574 45.2002 13.4976 45.2002 16.1377V41.4339C45.2002 44.074 47.3492 46.2142 50.0002 46.2142H64.8003C67.4512 46.2142 69.6003 44.074 69.6003 41.4339V16.1377C69.6003 13.4976 67.4512 11.3574 64.8003 11.3574Z" fill="white"/>
<path d="M30.0003 11.3574H15.2002C12.5493 11.3574 10.4002 13.4976 10.4002 16.1377V61.3521C10.4002 63.9922 12.5493 66.1325 15.2002 66.1325H30.0003C32.6512 66.1325 34.8002 63.9922 34.8002 61.3521V16.1377C34.8002 13.4976 32.6512 11.3574 30.0003 11.3574Z" fill="white"/>
</g>
<defs>
<linearGradient id="paint0_linear" x1="80" y1="1" x2="80" y2="80.6731" gradientUnits="userSpaceOnUse">
<stop stop-color="#0079BF"/>
<stop offset="1" stop-color="#0079BF"/>
</linearGradient>
<clipPath id="clip0">
<rect width="80" height="80" fill="white"/>
</clipPath>
</defs>
</svg>
