<svg width="150" height="150" viewBox="0 0 150 150" fill="none" xmlns="http://www.w3.org/2000/svg">
<path fill-rule="evenodd" clip-rule="evenodd" d="M120.796 33.4737C121.074 35.5213 121.229 37.7192 121.229 40.0882C121.229 46.6147 120.005 53.9553 116.334 63.1324L96.6845 119.948C115.813 108.797 128.674 88.0737 128.674 64.3385C128.675 53.1523 125.815 42.6364 120.796 33.4737ZM65.4678 69.966L46.1636 126.06C51.927 127.754 58.0248 128.682 64.3369 128.682C71.8311 128.682 79.0167 127.388 85.7047 125.033C85.5335 124.758 85.3736 124.465 85.244 124.147L65.4678 69.966ZM107.77 61.0929C107.77 53.1395 104.913 47.6352 102.467 43.3498C99.2055 38.0471 96.1486 33.5617 96.1486 28.259C96.1486 22.3452 100.629 16.8408 106.951 16.8408C107.237 16.8408 107.508 16.876 107.784 16.8936C96.339 6.4049 81.0882 0 64.3369 0C41.8606 0 22.086 11.5333 10.5815 28.998C12.0932 29.0476 13.5168 29.078 14.7229 29.078C21.451 29.078 31.8709 28.259 31.8709 28.259C35.3389 28.0558 35.7468 33.1522 32.282 33.5617C32.282 33.5617 28.7948 33.9696 24.9206 34.1712L48.3471 103.865L62.4286 61.6383L52.4053 34.1712C48.9373 33.9696 45.6581 33.5617 45.6581 33.5617C42.1901 33.357 42.5964 28.0558 46.0644 28.259C46.066 28.259 56.6875 29.078 63.0092 29.078C69.7372 29.078 80.1588 28.259 80.1588 28.259C83.6252 28.0558 84.0363 33.1522 80.5683 33.5617C80.5683 33.5617 77.0779 33.9696 73.2068 34.1712L96.4558 103.333L102.873 81.8928C106.138 73.5315 107.77 66.5988 107.77 61.0929ZM0 64.3385C0 89.8029 14.7981 111.814 36.2635 122.242L5.57149 38.1558C2.00273 46.1572 0 55.0111 0 64.3385Z" transform="translate(10.7302 10.7354)" fill="#504E4D"/>
<path fill-rule="evenodd" clip-rule="evenodd" d="M3.44079 74.9984C3.44079 35.5389 35.5421 3.43919 74.9984 3.43919C114.455 3.43919 146.561 35.5389 146.561 74.9984C146.561 114.458 114.455 146.562 74.9984 146.562C35.5421 146.562 3.44079 114.458 3.44079 74.9984ZM0 74.9984C0 116.355 33.6433 150 74.9984 150C116.357 150 149.998 116.355 149.998 74.9984C149.998 33.6433 116.357 0 74.9984 0C33.6433 0 0 33.6433 0 74.9984Z" fill="#504E4D"/>
</svg>
