<svg width="170" height="180" viewBox="0 0 170 180" fill="none" xmlns="http://www.w3.org/2000/svg">
<path d="M0 29.8343L83.7348 1.94556e-08L169.724 29.3039L155.801 140.088L83.7348 180L12.7956 140.619L0 29.8343Z" fill="#E23237"/>
<path d="M85.989 29.3039L1.06986e-06 1.94556e-08V180L72.0663 140.155L85.989 29.3039Z" transform="translate(83.7349)" fill="#B52E31"/>
<path d="M52.1768 -2.68927e-07L3.54203e-07 116.088L19.4917 115.757L29.9668 89.5691H52.2431H52.3094H76.7735L88.2431 116.088L106.873 116.42L52.1768 -2.68927e-07ZM52.3094 37.1934L69.9448 74.0553H53.0387H52.1768H36.7956L52.3094 37.1934Z" transform="translate(31.6904 21.0166)" fill="white"/>
</svg>
