<svg width="80" height="80" viewBox="0 0 80 80" fill="none" xmlns="http://www.w3.org/2000/svg">
<path d="M75.3974 37.76L42.7974 5.16L39.6374 2L15.0974 26.54L3.87736 37.76C3.31556 38.3225 3 39.085 3 39.88C3 40.675 3.31556 41.4375 3.87736 42L26.2974 64.42L39.6374 77.76L64.1774 53.22L64.5574 52.84L75.3974 42C75.9592 41.4375 76.2747 40.675 76.2747 39.88C76.2747 39.085 75.9592 38.3225 75.3974 37.76V37.76ZM39.6374 51.08L28.4374 39.88L39.6374 28.68L50.8374 39.88L39.6374 51.08Z" fill="#2684FF"/>
<path d="M39.6373 28.68C36.1148 25.157 34.1292 20.3834 34.1142 15.4015C34.0992 10.4196 36.056 5.6341 39.5573 2.09L15.0473 26.59L28.3873 39.93L39.6373 28.68Z" fill="url(#paint0_linear)"/>
<path d="M50.8674 39.85L39.6374 51.08C41.3899 52.8315 42.7801 54.9111 43.7286 57.2C44.6771 59.4889 45.1653 61.9423 45.1653 64.42C45.1653 66.8977 44.6771 69.3511 43.7286 71.64C42.7801 73.9289 41.3899 76.0085 39.6374 77.76V77.76L64.2074 53.19L50.8674 39.85Z" fill="url(#paint1_linear)"/>
<defs>
<linearGradient id="paint0_linear" x1="37.6373" y1="17.35" x2="21.9973" y2="32.99" gradientUnits="userSpaceOnUse">
<stop offset="0.18" stop-color="#0052CC"/>
<stop offset="1" stop-color="#2684FF"/>
</linearGradient>
<linearGradient id="paint1_linear" x1="992.462" y1="2325.06" x2="1532.64" y2="1974.97" gradientUnits="userSpaceOnUse">
<stop offset="0.18" stop-color="#0052CC"/>
<stop offset="1" stop-color="#2684FF"/>
</linearGradient>
</defs>
</svg>
