<svg width="150" height="150" viewBox="0 0 150 150" fill="none" xmlns="http://www.w3.org/2000/svg">
<path d="M26.0726 9.23657C23.7923 2.21757 16.2543 -1.62338 9.23656 0.658071C2.21757 2.93829 -1.62338 10.4763 0.658073 17.4941L35.2082 123.796C37.5807 130.353 44.6636 134.037 51.4624 132.081C58.554 130.039 62.8771 122.507 60.6141 115.542C60.528 115.277 26.0726 9.23657 26.0726 9.23657Z" transform="translate(71.2019)" fill="#DFA22F"/>
<path d="M26.0738 9.23598C23.7923 2.21822 16.2543 -1.62273 9.23656 0.65749C2.21757 2.93771 -1.62338 10.4757 0.658071 17.4947L35.2082 123.797C37.5807 130.353 44.6636 134.038 51.4624 132.08C58.554 130.04 62.8771 122.508 60.6141 115.542C60.528 115.277 26.0738 9.23598 26.0738 9.23598Z" transform="translate(17.6658 17.395)" fill="#3CB187"/>
<path d="M123.369 26.0732C130.388 23.793 134.227 16.255 131.947 9.23598C129.667 2.21822 122.129 -1.62273 115.111 0.657491L8.80903 35.2088C2.25248 37.5801 -1.43228 44.663 0.524482 51.4619C2.5661 58.5534 10.098 62.8765 17.0628 60.6135C17.3285 60.5274 123.369 26.0732 123.369 26.0732Z" transform="translate(17.3948 71.2026)" fill="#CE1E5B"/>
<path d="M8.25749 33.6646C15.1769 31.4164 24.0948 28.5187 33.6646 25.4096C31.4164 18.4902 28.5187 9.57102 25.4083 -8.70022e-07L2.23086e-06 8.25873L8.25749 33.6646Z" transform="translate(40.1018 93.6353)" fill="#392538"/>
<path d="M8.25872 33.6695C17.8642 30.5493 26.792 27.648 33.6658 25.4145C31.4176 18.4951 28.5187 9.57348 25.4083 -7.59552e-07L1.05318e-06 8.25873L8.25872 33.6695Z" transform="translate(93.6365 76.2349)" fill="#BB242A"/>
<path d="M123.369 26.0732C130.387 23.793 134.228 16.255 131.948 9.23598C129.667 2.21822 122.129 -1.62273 115.11 0.657492L8.80836 35.2088C2.25181 37.5801 -1.43295 44.663 0.525038 51.4619C2.56543 58.5534 10.0973 62.8765 17.0634 60.6135C17.3278 60.5274 123.369 26.0732 123.369 26.0732Z" transform="translate(0 17.6665)" fill="#72C5CD"/>
<path d="M8.25872 33.6658C15.1781 31.4176 24.0985 28.5187 33.6695 25.4096C30.5493 15.8029 27.648 6.8751 25.4145 8.44837e-07L-1.87599e-07 8.25995L8.25872 33.6658Z" transform="translate(22.7012 40.0996)" fill="#248C73"/>
<path d="M8.25872 33.672C17.8666 30.5505 26.7957 27.6492 33.6707 25.4145C30.5493 15.8066 27.648 6.87633 25.4133 6.62247e-07L5.77535e-07 8.25995L8.25872 33.672Z" transform="translate(76.2361 22.6987)" fill="#62803A"/>
</svg>
