<svg width="80" height="80" viewBox="0 0 80 80" fill="none" xmlns="http://www.w3.org/2000/svg">
<path d="M62.6021 42.3706C52.992 42.3706 45.203 50.2044 45.203 59.8684C45.203 69.5331 52.992 77.3673 62.6021 77.3673C72.2106 77.3673 80 69.5331 80 59.8684C80 50.2044 72.2106 42.3706 62.6021 42.3706ZM17.3986 42.3718C7.78985 42.3718 0 50.2044 0 59.8692C0 69.5331 7.78985 77.3673 17.3986 77.3673C27.0078 77.3673 34.798 69.5331 34.798 59.8692C34.798 50.2044 27.0078 42.3718 17.3986 42.3718ZM57.3982 20.4977C57.3982 30.1617 49.6092 37.9972 40.0005 37.9972C30.3909 37.9972 22.6017 30.1617 22.6017 20.4977C22.6017 10.8344 30.3909 3 40.0005 3C49.6092 3 57.3982 10.8344 57.3982 20.4977Z" fill="url(#paint0_radial)"/>
<defs>
<radialGradient id="paint0_radial" cx="0" cy="0" r="1" gradientUnits="userSpaceOnUse" gradientTransform="translate(40.0001 43.6433) scale(53.0108 49.2782)">
<stop stop-color="#FFB900"/>
<stop offset="0.6" stop-color="#F95D8F"/>
<stop offset="0.9991" stop-color="#F95353"/>
</radialGradient>
</defs>
</svg>
