<svg width="150" height="213" viewBox="0 0 150 213" fill="none" xmlns="http://www.w3.org/2000/svg">
<path d="M0 0H150L136.589 153.334L75.4191 170.936L12.573 153.334L0 0Z" transform="translate(0 41.8125)" fill="#555557"/>
<path d="M0 0V141.245L50.534 126.717L61.6168 0H0Z" transform="translate(75.4531 56.6562)" fill="#555557"/>
<path d="M22.5941 0H0V28.9085L20.0795 25.1459L22.5941 0Z" transform="translate(75.4531 129.797)" fill="#555557"/>
<path d="M0 0L2.51459 18.4776L47.7586 18.4403L3.35279 37.7189L5.86738 55.3024H48.634V0H0Z" transform="translate(26.8281 74.4844)" fill="#555557"/>
<path d="M20.0981 14.2493L18.4403 0H0L2.51459 29.3183L41.8912 40.2148L41.9285 40.1962V18.8501L20.0981 14.2493Z" transform="translate(33.5312 139.859)" fill="#555557"/>
<path d="M42.7108 36.1542H2.34695L46.1567 18.2354V0H0V55.321H22.5941L20.0795 80.4483L0 84.2109V105.576L37.663 93.8594L42.7108 36.1542Z" transform="translate(75.4531 74.4844)" fill="#555557"/>
<path d="M0 0V28.7036H23.6185V19.4089H10.1142V9.72308H23.6185V0H0Z" transform="translate(30.4688)" fill="#555557"/>
<path d="M0 0V7.76729L8.21433 19.4089H0.633304V28.7036H23.4136V19.8373L15.814 10.1329H23.4136V0H0Z" transform="translate(63.5938)" fill="#555557"/>
<path d="M0 0V7.76729L8.23296 19.4089H0.633304V28.7036H23.4136V19.8373L15.8326 10.1329H23.4136V0H0Z" transform="translate(96.1094)" fill="#555557"/>
<path fill-rule="evenodd" clip-rule="evenodd" d="M0 0H150L136.589 153.334L75.4191 170.936L12.573 153.334L0 0Z" transform="translate(0 41.8125)" fill="#0081C4"/>
<path fill-rule="evenodd" clip-rule="evenodd" d="M0 0V141.245L50.534 126.717L61.6168 0H0Z" transform="translate(75.4531 56.6562)" fill="#0091D3"/>
<path d="M22.5941 0H0V28.8899L20.0795 25.1273L22.5941 0Z" transform="translate(75.4531 129.812)" fill="#008FC4"/>
<path d="M0 0L2.51459 18.4776L47.7586 18.4403L3.35279 37.7189L5.86738 55.321H48.634V0H0Z" transform="translate(26.8281 74.4844)" fill="#EBECEC"/>
<path d="M20.0981 14.2493L18.4403 0H0L2.51459 29.3183L41.8912 40.2148L41.9285 40.1962V18.8501L20.0981 14.2493Z" transform="translate(33.5312 139.859)" fill="#EBECEC"/>
<path d="M42.7108 36.1542H2.34695L46.1567 18.2354V0H0V55.321H22.5941L20.0795 80.4483L0 84.2109V105.576L37.663 93.8594L42.7108 36.1542Z" transform="translate(75.4531 74.4844)" fill="#FEFEFE"/>
<path fill-rule="evenodd" clip-rule="evenodd" d="M0 0V28.7036H23.6185V19.4089H10.1142V9.72308H23.6185V0H0Z" transform="translate(30.4688)" fill="#373435"/>
<path fill-rule="evenodd" clip-rule="evenodd" d="M0 0V7.76729L8.21433 19.4089H0.633304V28.7036H23.4136V19.8373L15.814 10.1329H23.4136V0H0Z" transform="translate(63.5938)" fill="#373435"/>
<path fill-rule="evenodd" clip-rule="evenodd" d="M0 0V7.76729L8.23296 19.4089H0.633304V28.7036H23.4136V19.8373L15.8326 10.1329H23.4136V0H0Z" transform="translate(96.1094)" fill="#373435"/>
</svg>
