<svg width="155" height="150" viewBox="0 0 155 150" fill="none" xmlns="http://www.w3.org/2000/svg">
<path d="M152.694 135.465C147.871 131.922 141.868 127.099 141.277 118.635C140.982 114.108 142.261 109.039 143.541 105.348C144.328 103.626 145.017 101.854 145.657 100.083V100.034C159.485 61.0101 139.063 18.1481 99.9897 4.32001C60.9169 -9.50803 18.1533 10.9634 4.32524 49.987C-9.5028 89.0106 10.9194 131.873 49.9922 145.701C71.5462 153.328 95.4132 150.72 114.802 138.565C116.77 137.63 118.443 137.089 119.378 137.483C129.319 141.665 140.194 142.945 150.824 141.075C152.694 140.78 157.467 139.008 152.694 135.465Z" fill="#0ABE51"/>
<path d="M8.46414 -7.50887e-07H58.8553C63.5303 -7.50887e-07 67.3194 3.78918 67.3194 8.46414V8.80861C67.3194 13.4836 63.5303 17.2727 58.8553 17.2727H8.46414C3.78918 17.2727 7.50887e-07 13.4836 7.50887e-07 8.80861V8.46414C7.50887e-07 3.78918 3.78918 -7.50887e-07 8.46414 -7.50887e-07Z" transform="translate(44.4314 40.9814)" fill="white"/>
<path d="M8.46414 -1.50177e-06H40.3031C44.978 -1.50177e-06 48.7672 3.78918 48.7672 8.46414V8.85782C48.7672 13.5328 44.978 17.322 40.3031 17.322H8.46414C3.78918 17.322 7.50887e-07 13.5328 7.50887e-07 8.85782V8.46414C7.50887e-07 3.78918 3.78918 -1.50177e-06 8.46414 -1.50177e-06Z" transform="translate(44.4314 66.6201)" fill="white"/>
<path d="M8.46414 -3.00355e-06H14.2217C18.8967 -3.00355e-06 22.6859 3.78918 22.6859 8.46414V8.80861C22.6859 13.4836 18.8967 17.2727 14.2217 17.2727H8.46414C3.78918 17.2727 7.50887e-07 13.4836 7.50887e-07 8.80861V8.46414C7.50887e-07 3.78918 3.78918 -3.00355e-06 8.46414 -3.00355e-06Z" transform="translate(44.4314 91.8154)" fill="white"/>
</svg>
