<svg width="150" height="147" viewBox="0 0 150 147" fill="none" xmlns="http://www.w3.org/2000/svg">
<path fill-rule="evenodd" clip-rule="evenodd" d="M75 0C33.5846 0 0 33.5793 0 75C0 108.138 21.4887 136.247 51.292 146.166C55.0365 146.86 56.4143 144.536 56.4143 142.558C56.4143 140.77 56.346 134.859 56.3144 128.595C35.4463 133.129 31.0445 119.744 31.0445 119.744C27.6313 111.077 22.7193 108.774 22.7193 108.774C15.914 104.114 23.2294 104.214 23.2294 104.214C30.7605 104.74 34.7258 111.94 34.7258 111.94C41.4154 123.405 52.2702 120.092 56.5511 118.177C57.2242 113.328 59.1701 110.02 61.3158 108.148C44.655 106.25 27.1422 99.8177 27.1422 71.082C27.1422 62.8936 30.0715 56.204 34.8731 50.9501C34.0947 49.0621 31.523 41.4312 35.5988 31.1023C35.5988 31.1023 41.894 29.0881 56.225 38.7911C62.2099 37.1292 68.626 36.2983 75 36.2667C81.374 36.2983 87.7954 37.1292 93.7908 38.7911C108.106 29.0881 114.391 31.1023 114.391 31.1023C118.472 41.4312 115.905 49.0621 115.127 50.9501C119.939 56.204 122.847 62.8936 122.847 71.082C122.847 99.8861 105.303 106.229 88.6 108.085C91.2927 110.415 93.6856 114.98 93.6856 121.974C93.6856 132.009 93.6014 140.087 93.6014 142.558C93.6014 144.552 94.953 146.892 98.7501 146.156C128.538 136.226 150 108.127 150 75C150 33.5793 116.421 0 75 0Z" fill="#323131"/>
<path d="M2.0056 1.26804C1.84257 1.64143 1.25355 1.75713 0.722385 1.49944C0.175439 1.25226 -0.12433 0.747386 0.0492203 0.37399C0.212252 -0.00992368 0.796012 -0.115106 1.34296 0.137331C1.88465 0.384509 2.19493 0.894641 2.0056 1.26804Z" transform="translate(26.4062 106.406)" fill="#323131"/>
<path d="M1.97124 2.08264C1.61362 2.41397 0.914157 2.25619 0.440838 1.73554C-0.048258 1.20963 -0.142922 0.510173 0.219956 0.173591C0.588093 -0.157732 1.26652 4.08058e-05 1.76087 0.520692C2.24997 1.05186 2.34463 1.74606 1.97124 2.08264Z" transform="translate(29.4688 108.984)" fill="#323131"/>
<path d="M2.01819 2.56616C1.56065 2.88696 0.808597 2.58719 0.345797 1.91929C-0.117004 1.25138 -0.117004 0.451998 0.356315 0.131193C0.819116 -0.189612 1.56065 0.0996389 2.02871 0.762285C2.49151 1.44071 2.49151 2.24009 2.01819 2.56616Z" transform="translate(32.375 112.828)" fill="#323131"/>
<path d="M2.57524 2.47851C2.15978 2.93079 1.28677 2.80457 0.645156 2.18926C-0.0122315 1.58446 -0.191041 0.72723 0.219169 0.274948C0.634638 -0.182594 1.51817 -0.0563753 2.15978 0.558939C2.8119 1.16374 3.01175 2.02623 2.57524 2.47851Z" transform="translate(35.875 117.094)" fill="#323131"/>
<path d="M3.13455 1.63801C2.95574 2.22703 2.11429 2.49524 1.26231 2.24281C0.415598 1.98511 -0.141867 1.29617 0.0316837 0.70715C0.205234 0.112872 1.05195 -0.16586 1.90918 0.102354C2.7559 0.36005 3.31336 1.04373 3.13455 1.63801Z" transform="translate(40.9062 120.344)" fill="#323131"/>
<path d="M3.22383 1.09453C3.2396 1.70985 2.51911 2.22524 1.63032 2.23576C0.731015 2.25679 0.0052591 1.75718 0 1.14712C0 0.521292 0.69946 0.0164181 1.59877 0.000640845C2.48755 -0.0203955 3.22383 0.479219 3.22383 1.09453Z" transform="translate(46.9531 121.344)" fill="#323131"/>
<path d="M3.19431 0.857269C3.30475 1.46207 2.68418 2.07738 1.80065 2.24567C0.927636 2.40344 0.122994 2.03005 0.0125534 1.43051C-0.0978877 0.815196 0.533204 0.194623 1.40096 0.0368497C2.28974 -0.120923 3.08387 0.241955 3.19431 0.857269Z" transform="translate(52.6875 120.609)" fill="#323131"/>
</svg>
