<svg width="256" height="192" viewBox="0 0 256 192" fill="none" xmlns="http://www.w3.org/2000/svg">
<path d="M219.827 110.06C210.921 110.106 203.18 112.251 196.699 115.422C194.32 110.712 191.942 106.516 191.523 103.438C191.056 99.8476 190.497 97.656 191.056 93.366C191.616 89.0761 194.134 82.9675 194.087 82.5012C194.041 82.0349 193.528 79.8433 188.398 79.7966C183.269 79.75 178.839 80.7759 178.326 82.1281C177.813 83.4804 176.834 86.558 176.181 89.7289C175.295 94.3919 165.923 111.039 160.56 119.759C158.835 116.355 157.343 113.37 157.016 110.992C156.55 107.402 155.99 105.21 156.55 100.92C157.11 96.6302 159.628 90.5216 159.581 90.0553C159.534 89.589 159.021 87.3974 153.892 87.3507C148.763 87.3041 144.333 88.33 143.82 89.6822C143.307 91.0345 142.747 94.2054 141.675 97.283C140.602 100.361 128.152 128.152 124.888 135.333C123.209 139.017 121.764 141.955 120.738 143.96C120.738 143.96 120.691 144.1 120.551 144.333C119.665 146.058 119.152 146.991 119.152 146.991C119.152 146.991 119.152 146.991 119.152 147.037C118.453 148.296 117.707 149.462 117.334 149.462C117.054 149.462 116.541 146.105 117.427 141.535C119.292 131.883 123.722 116.868 123.676 116.355C123.676 116.075 124.515 113.464 120.785 112.111C117.147 110.759 115.842 112.997 115.515 112.997C115.189 112.997 114.956 113.79 114.956 113.79C114.956 113.79 119.013 96.9099 107.215 96.9099C99.8476 96.9099 89.6822 104.977 84.6461 112.251C81.4752 113.977 74.7139 117.66 67.4862 121.624C64.735 123.163 61.8906 124.702 59.2326 126.147C59.0461 125.961 58.8596 125.727 58.6731 125.541C44.4042 110.293 18.0115 99.5212 19.1306 79.0506C19.5503 71.5897 22.115 52.005 69.8177 28.2236C109.08 8.87204 140.323 14.2345 145.732 26.1252C153.472 43.0986 128.991 74.6207 88.4231 79.1904C72.9419 80.9158 64.8283 74.9471 62.7765 72.7088C60.6315 70.3773 60.3051 70.2374 59.5124 70.7037C58.2068 71.4032 59.0461 73.5015 59.5124 74.7139C60.7248 77.8848 65.7142 83.4804 74.1543 86.2316C81.6151 88.6564 99.7543 90.0087 121.717 81.522C146.291 72.0094 165.503 45.57 159.861 23.4207C154.218 0.944904 116.914 -6.4693 81.6151 6.07423C60.6315 13.5351 37.876 25.2859 21.5088 40.5806C2.06396 58.7664 -1.01364 74.574 0.245377 81.1955C4.76851 104.697 37.1765 119.992 50.1397 131.323C49.4869 131.696 48.8807 132.022 48.3678 132.302C41.8862 135.52 17.1722 148.436 11.017 162.099C4.02243 177.58 12.1361 188.678 17.4986 190.17C34.1456 194.787 51.2589 186.487 60.445 172.777C69.6312 159.068 68.512 141.255 64.2687 133.095C64.2221 133.002 64.1754 132.908 64.0822 132.815C65.7609 131.836 67.4862 130.81 69.1649 129.831C72.4756 127.872 75.7397 126.054 78.5375 124.562C76.9521 128.898 75.7864 134.074 75.2268 141.535C74.5273 150.302 78.1179 161.679 82.8275 166.156C84.9259 168.114 87.3973 168.161 88.9827 168.161C94.4851 168.161 96.9565 163.591 99.7077 158.182C103.065 151.561 106.096 143.867 106.096 143.867C106.096 143.867 102.319 164.664 112.578 164.664C116.308 164.664 120.085 159.814 121.764 157.343V157.389C121.764 157.389 121.857 157.249 122.044 156.923C122.417 156.317 122.65 155.944 122.65 155.944V155.851C124.142 153.239 127.499 147.317 132.489 137.478C138.924 124.795 145.126 108.941 145.126 108.941C145.126 108.941 145.685 112.811 147.597 119.246C148.716 123.023 151.048 127.173 152.913 131.183C151.421 133.282 150.488 134.447 150.488 134.447C150.488 134.447 150.488 134.447 150.535 134.494C149.322 136.079 148.017 137.805 146.571 139.483C141.488 145.545 135.426 152.493 134.587 154.498C133.608 156.876 133.841 158.602 135.706 160.001C137.058 161.027 139.483 161.166 141.955 161.027C146.524 160.7 149.742 159.581 151.327 158.882C153.799 157.996 156.69 156.643 159.394 154.638C164.384 150.954 167.415 145.685 167.135 138.737C166.995 134.914 165.736 131.09 164.197 127.499C164.664 126.847 165.083 126.194 165.55 125.541C173.43 114.023 179.539 101.386 179.539 101.386C179.539 101.386 180.098 105.257 182.01 111.692C182.943 114.956 184.854 118.5 186.533 121.95C179.119 127.966 174.549 134.96 172.917 139.53C169.979 148.017 172.264 151.84 176.601 152.726C178.559 153.146 181.357 152.213 183.409 151.327C186.02 150.488 189.098 149.043 192.036 146.898C197.025 143.214 201.828 138.084 201.548 131.137C201.408 127.966 200.569 124.841 199.403 121.81C205.698 119.199 213.812 117.754 224.164 118.966C246.36 121.577 250.743 135.426 249.904 141.255C249.064 147.084 244.401 150.255 242.863 151.234C241.324 152.213 240.811 152.54 240.951 153.239C241.137 154.265 241.883 154.218 243.189 154.032C245.007 153.706 254.846 149.322 255.266 138.597C255.966 124.888 242.909 109.92 219.827 110.06ZM48.6009 167.788C41.2334 175.808 30.9747 178.839 26.5448 176.275C21.7885 173.523 23.6538 161.679 32.7 153.193C38.2024 148.017 45.2902 143.214 49.9998 140.276C51.0723 139.623 52.6578 138.691 54.5696 137.525C54.896 137.338 55.0825 137.245 55.0825 137.245C55.4556 137.012 55.8286 136.779 56.2017 136.546C59.5124 148.669 56.3416 159.348 48.6009 167.788ZM102.226 131.323C99.661 137.571 94.2986 153.566 91.0344 152.68C88.2366 151.934 86.5113 139.81 90.4749 127.826C92.48 121.81 96.7233 114.629 99.1947 111.832C103.205 107.355 107.635 105.863 108.707 107.682C110.06 110.06 103.811 127.406 102.226 131.323ZM146.478 152.493C145.405 153.053 144.379 153.426 143.913 153.146C143.587 152.959 144.379 152.213 144.379 152.213C144.379 152.213 149.928 146.245 152.12 143.54C153.379 141.955 154.871 140.09 156.457 137.991V138.597C156.457 145.732 149.555 150.535 146.478 152.493ZM180.611 144.706C179.818 144.146 179.958 142.281 182.616 136.452C183.642 134.167 186.067 130.344 190.217 126.66C190.683 128.152 191.01 129.598 190.963 130.95C190.916 139.95 184.481 143.307 180.611 144.706Z" fill="#CD6799"/>
</svg>
