<svg width="80" height="80" viewBox="0 0 80 80" fill="none" xmlns="http://www.w3.org/2000/svg">
<path fill-rule="evenodd" clip-rule="evenodd" d="M33.7252 72.9536L35.4819 80H43.9184L45.5577 72.8358L33.7252 72.9536Z" fill="#61A706"/>
<path fill-rule="evenodd" clip-rule="evenodd" d="M38.1251 67.9685L38.4455 68.9648L38.6484 69.4091L40.6827 69.4197L40.9231 69.3019L41.2167 68.6059C42.4715 65.3664 45.766 51.5414 46.4495 48.0128C48.3076 38.4392 49.7013 28.6835 49.0232 18.9063C48.7669 15.2118 48.0727 11.0835 46.6951 7.6299C45.6432 4.97948 44.0627 1.94353 41.2808 0.76556C38.2586 -0.514145 35.3432 2.59142 34.0403 5.10798C27.1256 18.4672 31.5414 41.5072 34.7719 55.1663L35.8612 59.8516C36.5766 62.5663 37.3883 64.9754 38.1251 67.9685Z" fill="#979797"/>
<path fill-rule="evenodd" clip-rule="evenodd" d="M37.2601 68.6437L36.0587 67.6528C21.706 54.1386 2.02435 8.70092 33.0472 0.321264C34.3127 -0.0214176 34.0511 0.0588986 35.2738 0C10.8987 10.5321 27.3445 51.5951 37.2601 68.6437Z" fill="#979797"/>
<path fill-rule="evenodd" clip-rule="evenodd" d="M42.45 68.6437L43.6514 67.6528C58.0042 54.1386 77.6858 8.70092 46.6629 0.321264C45.3975 -0.0214176 45.6591 0.0588986 44.4363 0C68.8115 10.5321 52.3709 51.5951 42.45 68.6437Z" fill="#979797"/>
<path fill-rule="evenodd" clip-rule="evenodd" d="M23.0354 3.60889C16.9323 6.45743 12.2441 12.6418 11.2349 19.3508L11 22.1994L11.0267 24.4911L11.3471 27.0184L11.5233 28.2231C13.9261 41.486 24.9149 58.8717 34.5849 68.0867C21.2146 50.1976 1.03635 21.8995 23.0354 3.60889Z" fill="#979797"/>
<path fill-rule="evenodd" clip-rule="evenodd" d="M56.6746 3.60889C62.7777 6.45743 67.4659 12.6418 68.4751 19.3508L68.71 22.1994L68.6779 24.4911L68.3576 27.0184L68.1814 28.2231C65.7786 41.486 54.7897 58.8717 45.1198 68.0867C58.4954 50.1976 78.6736 21.8995 56.6746 3.60889Z" fill="#979797"/>
</svg>
