<svg width="256" height="215" viewBox="0 0 256 215" fill="none" xmlns="http://www.w3.org/2000/svg">
<path d="M99.3457 2.70102L3.94739 42.1756C-1.35774 44.3712 -1.30278 51.9065 4.03561 54.0225L99.8331 92.0117C108.251 95.3499 117.624 95.3499 126.041 92.0117L221.84 54.0225C227.177 51.9065 227.233 44.3712 221.926 42.1756L126.529 2.70102C117.825 -0.900339 108.048 -0.900339 99.3457 2.70102Z" transform="translate(14.9126)" fill="#FFBF00"/>
<path d="M4.31738e-06 47.8321V142.734C4.31738e-06 147.248 4.5516 150.339 8.7474 148.676L115.495 107.241C117.932 106.275 119.53 103.921 119.53 101.3V6.39765C119.53 1.88367 114.979 -1.20714 110.783 0.456141L4.03525 41.8905C1.59964 42.8567 4.31738e-06 45.2113 4.31738e-06 47.8321Z" transform="translate(136.349 64.9248)" fill="#26B5F8"/>
<path d="M111.422 52.3264L79.7418 67.6227L76.5252 69.1775L9.6499 101.221C5.41071 103.266 0 100.177 0 95.4674V6.3939C0 4.69013 0.873582 3.21921 2.04511 2.11133C2.53397 1.62102 3.08791 1.21749 3.66355 0.897856C5.26174 -0.0610595 7.54115 -0.317055 9.47923 0.449499L110.89 40.6299C116.045 42.675 116.45 49.898 111.422 52.3264Z" transform="translate(0 65.3271)" fill="#ED3049"/>
<path d="M109.377 52.3264L77.6967 67.6227L-1.11873e-07 2.11133C0.488859 1.62102 1.0428 1.21749 1.61844 0.897856C3.21663 -0.0610595 5.49604 -0.317055 7.43412 0.449499L108.845 40.6299C114 42.675 114.405 49.898 109.377 52.3264Z" transform="translate(2.04492 65.3271)" fill="black" fill-opacity="0.25"/>
</svg>
